<?xml version="1.0" encoding="utf-8"?>
<!-- Generator: Adobe Illustrator 18.1.1, SVG Export Plug-In . SVG Version: 6.00 Build 0)  -->
<svg version="1.1" id="Layer_1" xmlns="http://www.w3.org/2000/svg" xmlns:xlink="http://www.w3.org/1999/xlink" x="0px" y="0px" viewBox="0 204 792 170"
	 style="enable-background:new 0 204 792 170;" xml:space="preserve">
<metadata><?xpacket begin="﻿" id="W5M0MpCehiHzreSzNTczkc9d"?>
<x:xmpmeta xmlns:x="adobe:ns:meta/" x:xmptk="Adobe XMP Core 5.6-c014 79.156821, 2014/08/29-03:07:50        ">
   <rdf:RDF xmlns:rdf="http://www.w3.org/1999/02/22-rdf-syntax-ns#">
      <rdf:Description rdf:about=""
            xmlns:dc="http://purl.org/dc/elements/1.1/"
            xmlns:xmp="http://ns.adobe.com/xap/1.0/"
            xmlns:xmpGImg="http://ns.adobe.com/xap/1.0/g/img/"
            xmlns:xmpMM="http://ns.adobe.com/xap/1.0/mm/"
            xmlns:stRef="http://ns.adobe.com/xap/1.0/sType/ResourceRef#"
            xmlns:stEvt="http://ns.adobe.com/xap/1.0/sType/ResourceEvent#"
            xmlns:illustrator="http://ns.adobe.com/illustrator/1.0/"
            xmlns:xmpTPg="http://ns.adobe.com/xap/1.0/t/pg/"
            xmlns:stDim="http://ns.adobe.com/xap/1.0/sType/Dimensions#"
            xmlns:xmpG="http://ns.adobe.com/xap/1.0/g/"
            xmlns:pdf="http://ns.adobe.com/pdf/1.3/">
         <dc:format>image/svg+xml</dc:format>
         <dc:title>
            <rdf:Alt>
               <rdf:li xml:lang="x-default">Print</rdf:li>
            </rdf:Alt>
         </dc:title>
         <xmp:MetadataDate>2017-01-17T13:42:39-05:00</xmp:MetadataDate>
         <xmp:ModifyDate>2017-01-17T13:42:39-05:00</xmp:ModifyDate>
         <xmp:CreateDate>2017-01-17T13:42:38-05:00</xmp:CreateDate>
         <xmp:CreatorTool>Adobe Illustrator CC 2014 (Windows)</xmp:CreatorTool>
         <xmp:Thumbnails>
            <rdf:Alt>
               <rdf:li rdf:parseType="Resource">
                  <xmpGImg:width>256</xmpGImg:width>
                  <xmpGImg:height>120</xmpGImg:height>
                  <xmpGImg:format>JPEG</xmpGImg:format>
                  <xmpGImg:image>/9j/4AAQSkZJRgABAgEASABIAAD/7QAsUGhvdG9zaG9wIDMuMAA4QklNA+0AAAAAABAASAAAAAEA&#xA;AQBIAAAAAQAB/+4ADkFkb2JlAGTAAAAAAf/bAIQABgQEBAUEBgUFBgkGBQYJCwgGBggLDAoKCwoK&#xA;DBAMDAwMDAwQDA4PEA8ODBMTFBQTExwbGxscHx8fHx8fHx8fHwEHBwcNDA0YEBAYGhURFRofHx8f&#xA;Hx8fHx8fHx8fHx8fHx8fHx8fHx8fHx8fHx8fHx8fHx8fHx8fHx8fHx8fHx8f/8AAEQgAeAEAAwER&#xA;AAIRAQMRAf/EAaIAAAAHAQEBAQEAAAAAAAAAAAQFAwIGAQAHCAkKCwEAAgIDAQEBAQEAAAAAAAAA&#xA;AQACAwQFBgcICQoLEAACAQMDAgQCBgcDBAIGAnMBAgMRBAAFIRIxQVEGE2EicYEUMpGhBxWxQiPB&#xA;UtHhMxZi8CRygvElQzRTkqKyY3PCNUQnk6OzNhdUZHTD0uIIJoMJChgZhJRFRqS0VtNVKBry4/PE&#xA;1OT0ZXWFlaW1xdXl9WZ2hpamtsbW5vY3R1dnd4eXp7fH1+f3OEhYaHiImKi4yNjo+Ck5SVlpeYmZ&#xA;qbnJ2en5KjpKWmp6ipqqusra6voRAAICAQIDBQUEBQYECAMDbQEAAhEDBCESMUEFURNhIgZxgZEy&#xA;obHwFMHR4SNCFVJicvEzJDRDghaSUyWiY7LCB3PSNeJEgxdUkwgJChgZJjZFGidkdFU38qOzwygp&#xA;0+PzhJSktMTU5PRldYWVpbXF1eX1RlZmdoaWprbG1ub2R1dnd4eXp7fH1+f3OEhYaHiImKi4yNjo&#xA;+DlJWWl5iZmpucnZ6fkqOkpaanqKmqq6ytrq+v/aAAwDAQACEQMRAD8A9U4q7FXYq7FXYq7FXYq7&#xA;FXYq7FXYq7FXYq7FXYq7FXYq7FXYq7FXYq7FXYq7FXYq7FXYq7FXYq7FXYq7FXYq7FXYq7FXYq7F&#xA;XYq7FXYq7FXYq7FXYq7FXYq7FXYq7FXYq7FXYq7FXYq7FXYq7FXYq7FXYq7FXYq7FXYq7FXYq7FX&#xA;Yq7FXYq7FXYq7FXYq7FXYq7FXYq7FXYq7FXYq7FXYq7FXYq7FXYq7FXYq7FXYq7FXYq7FXYq7FXY&#xA;q7FXYq7FXYq7FXYq7FXYq7FXYq7FXYq7FXYq7FXYq7FXYq7FXYq7FXYq7FXYq7FXYq7FXYq7FXYq&#xA;7FXYq7FXYq7FXYq7FXYq7FXYq7FXYq7FXYq7FXYq7FXYq7FXYq7FXkv59eYPM2l6co0eF5isIkSJ&#xA;eRDuZOL1VSGb01oae+c32vLj1GPFORhiIsnlZ7vu+buuz48OGeSI4sgP2JL+XH5jeZbTQLeXVLWs&#xA;s6lpLOQupjIYgFOXIrzWjcTmqh2qdHlljgfFxdLP3FzpaAamEZyHBPrszRPzk0OK5tbfULaS2kvJ&#xA;PSg4sJQW4lj2XoATm20/tFHJZMJAR50Qa6eTgZuxzCqkLPL8bvQM6N0zsVdirsVdirsVdirsVdir&#xA;sVU7e5t7hDJBIsqK7xsymoDxsUddu6spBwkUgEFUJABJNANyTgSlUfmzytJP9Xj1mxeetPRW5hL1&#xA;8OIauT8OXcWvxYcrHzTTkvHlUcaV5dqeOQbErj82eVpJ/q8es2Lz1p6K3MJevhxDVyfhy7i1+LDl&#xA;Y+aJ1DWdI02NJNRvreyjlNI3uJUiVjStFLla4IxJ5BlKcY8zSB/xv5L/AOr/AKb/ANJcH/NeS8Kf&#xA;cfkw8eH84fNH2OsaRqCq9hfW92r8grQSpIDwpzoUJ+zzWvhUZExI5hnGcTyNovIslG5vbO1UNdTx&#xA;wK1aNIwQHipZt2I6KpJwgE8kGQHNA/4p8sf9Xey/6SYv+asl4cu4sPFh3hMLe5t7mFZ7eVJoXFUl&#xA;jYOpHswqDkSKZgg8mre8tLgyi3njmMLmKYRsrcHXqjUJow8DiQQoIPJbBf2NxNNDBcRTTW543EUb&#xA;qzRk12dQar0PXEghRIFXwJQn6Y0jjM316342zcLhvVSkbE04vv8ACajocJBCBIHk611jSLuX0rW+&#xA;t7iWhPpxSo7UHU0Uk4EovFXYqx3z7pqXvlq6bgGmtQJ4mpuAhq//AAlc0/bmnGTTSNbx3Hw5/Y7D&#xA;svNwZh3S2/HxYf8AldeomrXNjJQpdxcgp3q8RqBT/VZs572azAZpQPKQ+0fgu47ax3jEh/CfvSH8&#xA;9ddutI13Q9H0Py7JeXt5DcTrLBGFR/TFWReAq7RIhdh+ypB750Gv7Fx6gxr0V3Ab8nU6TtKeIG/V&#xA;feeT0r8tfN03m/yTpnmGa1NnLeo/OHkGFY5GjLqR2fhyA7dPfNwLrd1x5smwodirsVdirsVdirsV&#xA;diqS+c/MKeXvLN/qpp6sEZFup35TP8MYp/rEV9ssxQ4pANWbJwQJYV+VL6toGqXXlPW3JuLqCPVr&#xA;NmrUmZR9YSprUq/4hjl+oqQ4h7nF0lwJhL3/AK0w/OGXjpekxXbyRaFNqMKa1JFyB+rmuzcd+JP4&#xA;075HTczXOtmesOwv6b3TaDyD+XV9p0YttIsZ7N1/dTwqpLKe4mQ8z068sgc2QHmWwafERsBSSfmt&#xA;Db2WgaJYsHtvLIvre31UQchxtFFAp478Nt/o75Zpzcif4q2atWAIgfw3v7k7g8g/lzfadGLbSbGe&#xA;zdf3c8KqSynuJkPM9OvLKzmyA8y2jT4iNgKSjz9pGmNqPkvSmto204XphFqwrH6aw0C0PbbJ4ZGp&#xA;HrTXqIC4Dpaf/wDKvPI3/Visv+RKf0yvxp95bvy+P+aGGfmPpE2l6j5UtPKUcWm3jXdy9ssYEcZl&#xA;KR1DAbUcLxavbL8ErEjLdxdTDhMRDY2WU6J+YmkXfl261PUmGn3Ol1j1ezk2eGZajiAd25kfB49O&#xA;uUzwkSob3yciGoiYknaubyrzRq3mLWNX/SupobWwvdJ1GTSLAk8o7cQMFdx05yfaPtTtTMzHGMRQ&#xA;52LcDLOUjZ5GJp6T5R8ieTbrynotxcaNaSzz2FtJNK0Slmd4VLMTTqScxcmaYkd+rm4cEDAEgcgl&#xA;+hWlloP5nyaJoDkaVc2LXOo6erF4redXojipPAsKDj7/ACyUyZY7lzthjAhl4Y8q3CM/K/8A3t84&#xA;/wDbfvP+JZHUco/1Qy0vOf8AWKzz1o+oaNqaeedAj5XdqvDW7JdhdWgpybb9uMDr4D2oTikJDgl8&#xA;FzwMT4kefXzDvM35grfaZp+n+UZBc635hT/Q2H/HvEaiSaWleJSjD2IJ7buPDRJlyijLqLAEPqko&#xA;675WsfLX5eLptr8biaN7q4P2pZmPxu38PbKsmQzNt+HEIRoJF+XP/KWWv+pL/wAmzlba9hxVAa5q&#xA;8OkaXNfyqXWICkY2LMxCqK9tzmLrdXHT4jkO9N+mwHLMQHV5Pr3nXW9YDRSSfV7Rv+PaLYEf5R6t&#xA;+r2zgtd2xn1GxPDDuH6e96vS9nYsO4Fy7ykH5R/l35gh/MK68xfpKSXTi7O6nkAOTclQ1NCQvw7f&#xA;snt0zd9m5fzIxxhDh8Ii5fDkP63V1mth4PGZS4vE5D9Pw6Mg8862+oeYpngkKR2n7i3dDQjgTyYH&#xA;/XrTOsdAn35G8tP8rJ5caUSrpSr6L8QpIlLNIaD/AIsqd/HFWby+Y9Di1FtOlvI47xaconJX7QqB&#xA;yNFr7VxV57+Zd7dx+YUSKeRE+roQqOQN2bwOKpHp9j5q1GFp7IXM8SsUZ0dqBgAadfAjFWVeRtI8&#xA;0WuvLLqEVwlsInDGViVqaU2JxV6LirsVdirsVeZ+fNc0a889aLoOpXsNrpmln9J6iZnCK0q7W8W5&#xA;FTvyI/lOZeGBEDIDc7ODnnE5BEnYblC/mN5s8sCfR/Muj6ra3OqaLcjnbwyqZJbWb4ZowAd9vuBO&#xA;HBjlvEjYsdTlhtKJFx+56ZTT9V00ckS70+9iDcXAZJIpFqKg9QQcxNwfNztpDyLBrv8ALG+0aV7/&#xA;AMjanLpc9ebaXMxls5T/ACkNXjXxNfamZIziW0xbinSmO+M15dE68l+YYfOXliSTUbNFlWSSy1Oz&#xA;Yc4jLGAWADVqpVgd+nT3yvLDgls2YcniQ3HkUmu/ywvNHlfUPI2py6Xcbu2mSsZbOU/ykNXjXpU1&#xA;9qZMZxLaYtrOlMd8Zry6Mf1LXrjznbeVDK0ulakmrTWV69saPFPFECxiY8uzD5dPfLYw8Pi6immW&#xA;Q5RHoeKmW/8AKutS/wCpv1r/AJHr/wA05T44/mxcj8uf58kF5xtmtfMv5f2zzPcNBcyRtcSmskhS&#xA;JFLue7NSpw4jcZscwqUAm+uflt5c1nzHa65dxn1YafWbdaCK5KD90ZR34fiNjtkIZ5RjQbJ6aMpC&#xA;R/tYd+b/APyklt/2xdS/5NPl+m+n/ODjaz6v80o7yx+VWiX3lrSb2TUdTSS6sreZ0juiqK0kSsQq&#xA;8dlFdhkcmoIkRQ5s8WliYg2eXehoNKl/LPzNYCzlN55e8wXC2tyJ1U3EU7GiN6qqCy71p89q74TL&#xA;xYm/qixEPAmK3jJPPyv/AN7fOP8A237z/iWV6jlH+qG3S85/1izsgEUO4PUZjuW82/LPRNKsvOfn&#xA;I2tskRtrmOG3Kj+7jkDOyL4KWA29sys8yYRtwtNACc670/8AzL/5ReT/AIzR/rzFc1gfkK6trXzN&#xA;bzXMyQQqsgaSRgiiqECpagxV6r/iPy9/1dLT/kfF/wA1YqwT88fP+j+W/KVpJcK91Dqs4jhe24vt&#xA;GPULVLKpGwHXNd2ppJajCccSASRzczQ544snGejwgfnP5XqK2l8R3ASEf8zDnND2YzXvKP2/qd2e&#xA;28f80vqDVrmw8t+UXOn0ROAS0IO7SSjZ69z+1nX6bTwwwEICoh53NmlkkZS5l5BbWtxcu6woXMcb&#xA;yv7JGpZifoGXtSe+RNah0nWnmnbjbyQSrJ/sV9QfSSlB88VSiaS71bVWenO6vZtl/wAqRtgPbemK&#xA;p159sUsNUtLJCWW3soYwx78Swr9OKpZpmn+YbiBn02G5kgDFWMHPjzoCa8e9CMVeg/lvZ65bLqA1&#xA;SOeMMYfRE/Ltz5ceX0VxVmmKuxV2KuOwrSvtirCPK3kGBhqGp+a9Ps77WdTunndZY47hYYvsxxIz&#xA;qeijt7eGZGTNyETsHFxafmZgGRKdTeQ/JUsLxHQtPUSKVLJawqwqKVVgtQfA5WM0+8tpwQ/mj5MZ&#xA;0by1+ZOl+X7XT7HUbWGfSZp47eOdfVhu7ViDF6jL8cZTcAAdO+XSyYzKyOf2NEMWWMQARt9oRbal&#xA;+bs8Rtk0fTrSdvh/SDXJeJa7c1iFX26iuR4cXeWXFmO1BbZ+SPNGgaFaW3lrVohfRSS3GoLeRcor&#xA;yabjUsy1eMLx247+JxOWMj6h+xAwThECJ3631XNqX5uzRm2TRtOtZz8P19rkvEK7chEKvt13x4cX&#xA;eU8WY7UEsufy81vR9O0EaEI9R1DT76TUL6S4f0llmlTix26DagyYzCRN7Aims6eURHh3INpt+lfz&#xA;Y/6sWm/9JTf0yHDi7y2ceb+aPmo3mi+cNZ1Ty1qWpWltay6VeTSXUcMvNRCyIEZSRuSQdsRKMRID&#xA;qEGE5GJI5FneY7lsA/MLyZreuazDd2CxtCmm3loxdwp9WdGVNvCp65k4coiKPeHD1GGU5WO4taPJ&#xA;+aumaRY6bHounyJY28VskjXTAsIkCAmg78cZeGSTZWHjRAFDbzbg8qebvMHmKw1fza1rbWWkv61h&#xA;pdmWes1QQ8rt4FQf4DeqckYxIj1UYpzkJTqh0Q2laX+Y2ganrrabplld2mp6lcX0Uk1wUYLK54ig&#xA;H8tMMpY5AWTsEQhlgZUAbNpn+lfzY/6sWm/9JTf0yPDi7yz48380fNF+UPL+qabr/mS/vVRYtVuI&#xA;prbg3I0RGDV8NzkckwYxA6MsOMxlInqjPO2k3uq6E9pZKHnMiMFJC1Cnfc7ZS5Dzz/lXPmz/AJZU&#xA;/wCRsf8AXFXf8q582f8ALKn/ACNj/riqQfnR+WP5heatH8taRo+lrImjxzNdzvcQIrSTCPiqBnDf&#xA;BwblUfLFIeVf9Czfm/8A9WqH/pLt/wDmvFNvpDVfL3m7V/KujRzWotryxgWO8sHljZ2lRVTmrozo&#xA;wPEkVau+LFGfl95UntbW+n1KBoZrkG2WNxRhFT4z/sj+rFXmt1byW1zNbybSQu0b/NDQ/qxVl35Y&#xA;6P8AWtYfUJFrDYr8Fe8rghfuWp+7FUR+Y+j6td+YEmtbKe4i+roPUijd1qGaoqoO+KpBaWXnazjM&#xA;VpBqVvGTyKRJOiliAK0UDfbFU98p/wCNf8Q2f1/9I/VOTer9Y9f0qcG+1z+Hrir0/FXYq7FXYq7F&#xA;XYq7FXYq7FXYq7FXYq7FXYq7FXYq7FXYq7FXYq7FXYq7FXYq7FXYq7FWGeZPy3ttSuZr6yuDb3Ux&#xA;LyRyDlGzH3HxLXv1xVO/Kmg/oTR47Nyr3BZpLh0rxLt4VAOygDFU4xV2KuxV2KuxV2KuxV2KuxV2&#xA;KuxV2KuxV2KuxV2KuxV2KuxV2KuxV2KuxV2KuxV2KuxV2KuxV2KuxV2KuxV2KuxV2KuxV2KuxV2K&#xA;uxV2KuxV2KuxV2KuxV2KuxV2KuxV2KuxV2KuxV2KuxV2KuxV2KuxV2KuxV2KuxV2KuxV2KuxV2Ku&#xA;xV2KuxV2KuxV2KuxV2KuxV2KuxV2KuxV2KuxV2KuxV2KuxV2KuxV2KuxV2KuxV2KuxV2KuxV2Kux&#xA;V2KuxV2KuxV2KuxV2KuxV2KuxV2KuxV2KuxV2KuxV2KuxV2KuxV2KuxV2KuxV2KuxV2KuxV2KuxV&#xA;2KuxV2KuxV2KuxV2KuxV2KuxV2KuxV2KuxV2KuxV2KuxV2KuxV2KuxV2KuxV2KuxV2KuxV2KuxV2&#xA;KuxV2KuxV//Z</xmpGImg:image>
               </rdf:li>
            </rdf:Alt>
         </xmp:Thumbnails>
         <xmpMM:InstanceID>xmp.iid:8ae40fa1-0c7a-6045-82c0-b5f16db51bd4</xmpMM:InstanceID>
         <xmpMM:DocumentID>xmp.did:8ae40fa1-0c7a-6045-82c0-b5f16db51bd4</xmpMM:DocumentID>
         <xmpMM:OriginalDocumentID>uuid:5D20892493BFDB11914A8590D31508C8</xmpMM:OriginalDocumentID>
         <xmpMM:RenditionClass>proof:pdf</xmpMM:RenditionClass>
         <xmpMM:DerivedFrom rdf:parseType="Resource">
            <stRef:instanceID>uuid:c5d68ed8-4143-49a0-b6ff-25b75ddd3a97</stRef:instanceID>
            <stRef:documentID>xmp.did:7f4594c7-5d3f-e747-827a-e7d305ed075b</stRef:documentID>
            <stRef:originalDocumentID>uuid:5D20892493BFDB11914A8590D31508C8</stRef:originalDocumentID>
            <stRef:renditionClass>proof:pdf</stRef:renditionClass>
         </xmpMM:DerivedFrom>
         <xmpMM:History>
            <rdf:Seq>
               <rdf:li rdf:parseType="Resource">
                  <stEvt:action>saved</stEvt:action>
                  <stEvt:instanceID>xmp.iid:7f4594c7-5d3f-e747-827a-e7d305ed075b</stEvt:instanceID>
                  <stEvt:when>2017-01-11T13:15:08-05:00</stEvt:when>
                  <stEvt:softwareAgent>Adobe Illustrator CC 2014 (Windows)</stEvt:softwareAgent>
                  <stEvt:changed>/</stEvt:changed>
               </rdf:li>
               <rdf:li rdf:parseType="Resource">
                  <stEvt:action>saved</stEvt:action>
                  <stEvt:instanceID>xmp.iid:8ae40fa1-0c7a-6045-82c0-b5f16db51bd4</stEvt:instanceID>
                  <stEvt:when>2017-01-17T13:42:39-05:00</stEvt:when>
                  <stEvt:softwareAgent>Adobe Illustrator CC 2014 (Windows)</stEvt:softwareAgent>
                  <stEvt:changed>/</stEvt:changed>
               </rdf:li>
            </rdf:Seq>
         </xmpMM:History>
         <illustrator:StartupProfile>Print</illustrator:StartupProfile>
         <xmpTPg:HasVisibleOverprint>False</xmpTPg:HasVisibleOverprint>
         <xmpTPg:HasVisibleTransparency>True</xmpTPg:HasVisibleTransparency>
         <xmpTPg:NPages>1</xmpTPg:NPages>
         <xmpTPg:MaxPageSize rdf:parseType="Resource">
            <stDim:w>11.000000</stDim:w>
            <stDim:h>2.361111</stDim:h>
            <stDim:unit>Inches</stDim:unit>
         </xmpTPg:MaxPageSize>
         <xmpTPg:PlateNames>
            <rdf:Seq>
               <rdf:li>Cyan</rdf:li>
               <rdf:li>Magenta</rdf:li>
               <rdf:li>Yellow</rdf:li>
               <rdf:li>Black</rdf:li>
            </rdf:Seq>
         </xmpTPg:PlateNames>
         <xmpTPg:SwatchGroups>
            <rdf:Seq>
               <rdf:li rdf:parseType="Resource">
                  <xmpG:groupName>Default Swatch Group</xmpG:groupName>
                  <xmpG:groupType>0</xmpG:groupType>
               </rdf:li>
            </rdf:Seq>
         </xmpTPg:SwatchGroups>
         <pdf:Producer>Adobe PDF library 10.01</pdf:Producer>
      </rdf:Description>
   </rdf:RDF>
</x:xmpmeta>
                                                                                                    
                                                                                                    
                                                                                                    
                                                                                                    
                                                                                                    
                                                                                                    
                                                                                                    
                                                                                                    
                                                                                                    
                                                                                                    
                                                                                                    
                                                                                                    
                                                                                                    
                                                                                                    
                                                                                                    
                                                                                                    
                                                                                                    
                                                                                                    
                                                                                                    
                                                                                                    
                           
<?xpacket end="w"?>
	</metadata>
<g id="bg">
</g>
<radialGradient id="SVGID_1_" cx="352.655" cy="485.0053" r="602.9958" gradientTransform="matrix(1.1314 0 0 -0.402 0 500.6021)" gradientUnits="userSpaceOnUse">
	<stop  offset="0.229" style="stop-color:#FFFFFF"/>
	<stop  offset="1" style="stop-color:#D6D9D9"/>
</radialGradient>
<rect x="-49.042" y="97.826" style="display:none;fill:url(#SVGID_1_);" width="896.091" height="415.611"/>
<g id="Robotic_Arm_10_">
	<path id="XMLID_791_" style="fill:#231F20;" d="M594.315,310.083c-0.017-0.167-0.174-0.295-0.363-0.295h-1.992h-33.418h-1.992
		c-0.188,0-0.345,0.128-0.363,0.295l-2.982,28.425c-0.018,0.167-0.174,0.295-0.363,0.295h-1.429h-3.228
		c-0.201,0-0.364,0.146-0.364,0.326v2.35c0,0.18,0.163,0.326,0.364,0.326h3.228h1.446h2.831h39.121h2.831h1.446h3.228
		c0.201,0,0.364-0.146,0.364-0.326v-2.35c0-0.18-0.163-0.326-0.364-0.326h-3.228h-1.429c-0.188,0-0.345-0.128-0.363-0.295
		L594.315,310.083z"/>
	<g id="XMLID_773_">
		<g id="XMLID_775_">
			<g id="XMLID_781_">
				<g id="XMLID_788_">
					<path id="XMLID_790_" style="fill:#EA8E0B;" d="M636.195,234.341l1.831,15.493l2.324-0.275l-2.284-19.333
						C636.77,231.115,635.998,232.672,636.195,234.341z"/>
					<path id="XMLID_789_" style="fill:#EA8E0B;" d="M645.908,228.795l-5.887,0.696c-0.728,0.086-1.391,0.348-1.955,0.735
						l2.284,19.333l10.852-1.282l-1.729-14.429l-1.439-4.357C647.392,229.245,646.635,228.709,645.908,228.795z"/>
				</g>
				<path id="XMLID_787_" style="fill:#EA8E0B;" d="M653.078,250.213l-15.038,1.777c-0.404,0.048-0.769-0.241-0.817-0.645
					l-0.078-0.665c-0.047-0.404,0.241-0.769,0.645-0.818l15.037-1.777c0.404-0.048,0.769,0.241,0.818,0.645l0.079,0.665
					C653.77,249.798,653.482,250.165,653.078,250.213z"/>
				<path id="XMLID_786_" style="fill:#231F20;" d="M653.407,250.382c-0.014-0.114-0.117-0.196-0.231-0.182l-15.235,1.8
					c-0.114,0.014-0.196,0.117-0.182,0.231l0.291,2.462c0.014,0.114,0.117,0.196,0.231,0.182l15.236-1.8
					c0.114-0.014,0.195-0.117,0.182-0.231L653.407,250.382z"/>
				<path id="XMLID_785_" style="fill:#231F20;" d="M658.286,258.805c0.008,0.063-0.015,0.127-0.06,0.171l-0.68,0.68
					c-0.033,0.033-0.076,0.054-0.122,0.059l-21.394,2.529c-0.046,0.006-0.093-0.005-0.132-0.029l-0.82-0.502
					c-0.054-0.033-0.091-0.089-0.097-0.153l-0.639-5.409c-0.008-0.063,0.015-0.127,0.059-0.171l0.681-0.68
					c0.033-0.033,0.076-0.054,0.122-0.059l21.394-2.529c0.046-0.006,0.093,0.005,0.132,0.029l0.82,0.502
					c0.054,0.033,0.091,0.089,0.097,0.153"/>
				<g id="XMLID_783_">
					<path id="XMLID_784_" style="fill:#231F20;" d="M644.953,274.219l-1.499-12.686c-0.014-0.114-0.117-0.196-0.231-0.182
						l-5.566,0.657c-0.114,0.014-0.196,0.117-0.182,0.231l1.078,9.123c0.084,0.705,0.324,1.382,0.704,1.98l5.13,8.09
						c0.121,0.191,0.342,0.295,0.566,0.269l1.702-0.201c0.114-0.014,0.196-0.117,0.182-0.231l-0.799-6.761
						c-0.014-0.114-0.117-0.196-0.231-0.182l-0.623,0.074C645.069,274.415,644.966,274.333,644.953,274.219z"/>
				</g>
				<path id="XMLID_782_" style="opacity:0.1;fill:#231F20;enable-background:new    ;" d="M642.916,262.75l-4.635,0.548
					c-0.371,0.044-0.707-0.221-0.75-0.592l0,0c-0.044-0.371,0.221-0.707,0.592-0.75l4.635-0.548c0.371-0.044,0.707,0.221,0.75,0.592
					l0,0C643.552,262.37,643.287,262.706,642.916,262.75z"/>
			</g>
			<g id="XMLID_778_">
				<path id="XMLID_780_" style="fill:#EA8E0B;" d="M625.326,238.996"/>
				<polyline id="XMLID_779_" style="fill:#EA8E0B;" points="627.448,224.801 588.207,218.313 586.012,234.082 625.623,238.996 				
					"/>
			</g>
			<path id="XMLID_777_" style="fill:#EA8E0B;" d="M641.736,241.224l-16.627-2.258c-0.721-0.097-1.225-0.761-1.127-1.481
				l1.577-11.613c0.097-0.721,0.761-1.225,1.481-1.127l16.627,2.258c3.927,0.533,6.679,4.149,6.145,8.076l0,0
				C649.279,239.006,645.663,241.757,641.736,241.224z"/>
			<circle id="XMLID_776_" style="fill:#231F20;" cx="642.156" cy="234.506" r="3.536"/>
		</g>
		<circle id="XMLID_774_" style="fill:#EA8E0B;" cx="594.651" cy="227.306" r="16.51"/>
	</g>
	<polygon id="XMLID_772_" style="fill:#EA8E0B;" points="593.026,308.287 592.839,307.733 557.662,307.733 557.475,308.287 
		556.573,308.287 556.573,309.788 593.928,309.788 593.928,308.287 	"/>
	<path id="XMLID_771_" style="fill:#EA8E0B;" d="M559.471,307.733v-15.645c0-5.108,2.875-9.781,7.435-12.085l32.912-16.623
		c5.34-2.697,11.841-1.257,15.544,3.442l0,0c3.827,4.856,3.554,11.774-0.643,16.314l-23.347,24.596h-31.901V307.733z"/>
	<g id="XMLID_765_">
		<path id="XMLID_770_" style="fill:#EA8E0B;" d="M608.171,283.15L608.171,283.15c-5.83,1.505-11.777-2.001-13.282-7.833
			l-11.352-43.983c-1.505-5.83,2.002-11.777,7.833-13.282l0,0c5.83-1.505,11.777,2.001,13.282,7.833l11.352,43.983
			C617.509,275.698,614.003,281.645,608.171,283.15z"/>
		<g id="XMLID_768_">
			<circle id="XMLID_769_" style="fill:#231F20;" cx="605.448" cy="274.293" r="7.199"/>
		</g>
		<g id="XMLID_766_">
			<g>
				<circle id="XMLID_595_" style="fill:#231F20;" cx="594.651" cy="227.306" r="7.199"/>
			</g>
		</g>
	</g>
</g>
<g style="enable-background:new    ;">
	<path style="fill:#999999;" d="M671.311,313.164c0.733,3.098,1.478,6.254,2.236,9.47l14.245-34.045
		c0.31-0.74,0.858-1.272,1.646-1.595c0.786-0.323,1.581-0.316,2.383,0.019l18.041,7.549c0.8,0.334,1.364,0.896,1.688,1.684
		c0.322,0.787,0.328,1.551,0.019,2.291l-28.026,66.979c-0.31,0.741-0.857,1.271-1.645,1.595s-1.584,0.315-2.384-0.019l-20.724-8.672
		c-0.309-0.129-0.665-0.403-1.067-0.827c-0.403-0.422-0.664-0.838-0.78-1.251l-11.379-46.07l-14.014,33.489
		c-0.31,0.74-0.857,1.271-1.646,1.595c-0.787,0.322-1.583,0.315-2.384-0.02l-18.04-7.549c-0.74-0.31-1.271-0.857-1.595-1.646
		c-0.322-0.787-0.329-1.551-0.02-2.291l28.026-66.979c0.31-0.74,0.858-1.271,1.646-1.595c0.787-0.322,1.551-0.329,2.291-0.02
		l20.538,8.594c0.37,0.155,0.765,0.466,1.188,0.932c0.42,0.466,0.627,0.879,0.622,1.239c1.165,4.835,2.299,9.533,3.4,14.087
		c1.101,4.557,2.242,9.146,3.424,13.771C669.807,306.974,670.577,310.068,671.311,313.164z"/>
</g>
<g>
	<path style="fill:#31708F;" d="M74.424,340.881h-7.106l-6.996-15.878H20.236l-6.996,15.878H6.355
		c0.666-1.627,1.294-3.109,1.888-4.442c0.592-1.332,1.222-2.775,1.888-4.33l3.665-8.439l26.539-62.739L74.424,340.881z
		 M57.324,318.228l-16.99-40.641c-0.593,1.408-1.24,2.98-1.943,4.719c-0.704,1.741-1.427,3.498-2.166,5.276
		c-0.741,1.775-1.482,3.516-2.221,5.218c-0.741,1.705-1.444,3.22-2.11,4.553c-0.593,1.408-1.276,2.998-2.054,4.775
		c-0.777,1.775-1.555,3.591-2.332,5.441c-0.777,1.851-1.555,3.702-2.332,5.552c-0.777,1.851-1.499,3.554-2.166,5.107H57.324z"/>
	<path style="fill:#31708F;" d="M103.516,341.658c-3.776,0-7.46-0.499-11.048-1.499c-3.591-0.999-6.606-2.091-9.049-3.275
		c-1.259-0.592-2.407-1.147-3.442-1.667c-1.038-0.516-1.926-0.961-2.666-1.332h0.111c-0.149-0.147-0.296-0.222-0.444-0.222
		c-0.149,0-0.296-0.074-0.444-0.222l3.109-5.553l3.22,1.999c2.59,1.259,5.7,2.462,9.328,3.609c3.626,1.148,7.439,1.721,11.438,1.721
		c5.847,0,10.4-1.257,13.657-3.774c2.887-2.738,4.331-6.292,4.331-10.66c0-3.924-2.073-7.366-6.218-10.327
		c-1.555-1.183-3.22-2.183-4.998-2.998c-1.776-0.814-3.591-1.665-5.441-2.555l-2.554-1.222v0.112l-1.555-0.666
		c-2.592-1.036-5.164-2.184-7.717-3.442c-2.554-1.258-4.83-2.738-6.829-4.443c-2.592-1.923-4.461-4.07-5.607-6.439
		c-1.148-2.368-1.721-4.959-1.721-7.773c0-2.59,0.554-5.107,1.665-7.55c0.445-0.961,1.091-1.944,1.944-2.943
		c0.85-0.999,1.793-1.905,2.832-2.72c0.961-0.668,2.109-1.314,3.442-1.944c1.333-0.629,2.756-1.203,4.275-1.722
		c1.516-0.516,3.054-0.924,4.608-1.222c1.555-0.294,3.071-0.444,4.553-0.444c3.331,0,6.514,0.353,9.549,1.055
		c3.034,0.705,5.624,1.427,7.773,2.166l2.554,0.888l-1.444,2.998l-1.444,2.666c-2.221-0.815-4.775-1.555-7.662-2.221
		c-2.886-0.668-5.995-0.999-9.327-0.999c-1.259,0-2.887,0.148-4.887,0.444c-1.998,0.296-4.072,1.038-6.218,2.221
		c-3.628,2.147-5.441,5.441-5.441,9.883c0,1.704,0.481,3.239,1.444,4.608c0.961,1.37,2.257,2.646,3.886,3.831
		c1.627,1.185,3.515,2.276,5.663,3.275c2.146,0.999,4.366,1.981,6.663,2.942c2.96,1.333,6.069,2.76,9.327,4.276
		c3.257,1.517,5.997,3.163,8.218,4.941c5.477,4.368,8.216,9.549,8.216,15.546c0,3.259-0.685,6.2-2.054,8.829
		c-1.37,2.628-3.461,4.83-6.274,6.606c-2.149,1.629-4.738,2.887-7.773,3.776C110.029,341.104,106.846,341.584,103.516,341.658z
		 M122.171,266.595h0.111c0.072,0,0.166,0.038,0.277,0.112c0.111,0.075,0.203,0.112,0.277,0.112l-0.445-0.777L122.171,266.595z"/>
	<path style="fill:#31708F;" d="M159.59,341.658c-3.776,0-7.46-0.499-11.048-1.499c-3.591-0.999-6.606-2.091-9.049-3.275
		c-1.259-0.592-2.407-1.147-3.442-1.667c-1.038-0.516-1.926-0.961-2.666-1.332h0.111c-0.149-0.147-0.296-0.222-0.444-0.222
		c-0.149,0-0.296-0.074-0.444-0.222l3.109-5.553l3.22,1.999c2.59,1.259,5.7,2.462,9.327,3.609c3.626,1.148,7.439,1.721,11.438,1.721
		c5.847,0,10.4-1.257,13.657-3.774c2.887-2.738,4.331-6.292,4.331-10.66c0-3.924-2.073-7.366-6.218-10.327
		c-1.555-1.183-3.22-2.183-4.998-2.998c-1.776-0.814-3.591-1.665-5.441-2.555l-2.554-1.222v0.112l-1.555-0.666
		c-2.592-1.036-5.164-2.184-7.717-3.442s-4.83-2.738-6.829-4.443c-2.592-1.923-4.461-4.07-5.607-6.439
		c-1.148-2.368-1.721-4.959-1.721-7.773c0-2.59,0.554-5.107,1.665-7.55c0.445-0.961,1.091-1.944,1.944-2.943
		c0.85-0.999,1.793-1.905,2.832-2.72c0.961-0.668,2.109-1.314,3.442-1.944c1.333-0.629,2.756-1.203,4.275-1.722
		c1.516-0.516,3.054-0.924,4.608-1.222c1.555-0.294,3.071-0.444,4.553-0.444c3.331,0,6.514,0.353,9.549,1.055
		c3.035,0.705,5.624,1.427,7.773,2.166l2.554,0.888l-1.444,2.998l-1.444,2.666c-2.221-0.815-4.775-1.555-7.662-2.221
		c-2.886-0.668-5.995-0.999-9.327-0.999c-1.259,0-2.887,0.148-4.887,0.444c-1.998,0.296-4.072,1.038-6.218,2.221
		c-3.628,2.147-5.441,5.441-5.441,9.883c0,1.704,0.481,3.239,1.444,4.608c0.961,1.37,2.257,2.646,3.886,3.831
		c1.627,1.185,3.515,2.276,5.663,3.275c2.146,0.999,4.366,1.981,6.663,2.942c2.96,1.333,6.069,2.76,9.327,4.276
		c3.257,1.517,5.997,3.163,8.218,4.941c5.477,4.368,8.216,9.549,8.216,15.546c0,3.259-0.685,6.2-2.054,8.829
		c-1.37,2.628-3.461,4.83-6.274,6.606c-2.149,1.629-4.738,2.887-7.773,3.776C166.104,341.104,162.921,341.584,159.59,341.658z
		 M178.245,266.595h0.111c0.072,0,0.166,0.038,0.277,0.112c0.111,0.075,0.203,0.112,0.277,0.112l-0.445-0.777L178.245,266.595z"/>
	<path style="fill:#31708F;" d="M197.676,269.927v28.426h36.553v5.997h-36.553v29.87h42.328v6.774h-49.213v-77.841h49.213v6.774
		h-42.328V269.927z"/>
	<path style="fill:#31708F;" d="M306.585,262.265v78.728h-6.885v-61.628l-23.408,27.538l-23.186-27.76v61.85h-6.774v-78.617
		l29.96,34.644L306.585,262.265z"/>
	<path style="fill:#31708F;" d="M338.342,263.264c4.071,0,7.607,0.611,10.605,1.832c2.998,1.222,5.496,2.796,7.496,4.719
		c1.998,1.927,3.478,4.054,4.442,6.386c0.961,2.332,1.444,4.608,1.444,6.829c0,2.815-0.519,5.182-1.555,7.107
		c-1.038,1.926-2.185,3.516-3.443,4.775c-1.406,1.408-3.036,2.591-4.885,3.553c2.813,1.408,5.366,3.074,7.662,4.998
		c1.923,1.704,3.701,3.85,5.33,6.44c1.628,2.592,2.443,5.663,2.443,9.217c0,3.553-0.685,6.699-2.054,9.437
		c-1.37,2.74-3.109,5.017-5.219,6.829c-2.11,1.815-4.48,3.203-7.107,4.165c-2.628,0.962-5.164,1.444-7.607,1.444h-34.424v-77.729
		L338.342,263.264L338.342,263.264z M318.023,269.927v26.206h22.429c2.443,0,4.626-0.424,6.551-1.276
		c1.923-0.851,3.535-1.925,4.83-3.22c1.294-1.294,2.276-2.702,2.943-4.22c0.666-1.516,0.999-2.979,0.999-4.387
		c0-1.405-0.333-2.867-0.999-4.387c-0.666-1.516-1.61-2.922-2.832-4.22c-1.222-1.293-2.703-2.368-4.442-3.22
		c-1.74-0.85-3.72-1.276-5.941-1.276H318.023z M345.894,334.33c2.221,0,4.201-0.481,5.941-1.444c1.739-0.961,3.238-2.202,4.497-3.72
		c1.257-1.515,2.221-3.163,2.886-4.941c0.666-1.776,0.999-3.479,0.999-5.107c0-2.443-0.611-4.682-1.832-6.717
		c-1.222-2.037-2.721-3.776-4.497-5.219c-1.776-1.444-3.683-2.555-5.718-3.332c-2.038-0.777-3.87-1.167-5.496-1.167h-24.65v31.647
		C318.023,334.33,345.894,334.33,345.894,334.33z"/>
	<path style="fill:#31708F;" d="M427.551,334.219v6.774h-52.566v-77.729h6.774v70.955H427.551z"/>
	<path style="fill:#31708F;" d="M440.613,300.13l-1.334,1.665v39.197h-6.885v-39.197l-6.107-7.996
		c-1.776-2.443-3.572-4.866-5.386-7.273c-1.815-2.404-3.647-4.83-5.496-7.273l-4.887-6.329l-7.328-9.661h8.439l24.207,31.869
		c1.702-2.295,3.665-4.904,5.885-7.828c2.222-2.924,4.293-5.644,6.219-8.161l2.887-3.888c0.739-1.035,1.498-2.054,2.276-3.054
		c0.777-0.999,1.573-2.016,2.386-3.054l4.554-5.885h8.326L440.613,300.13z"/>
</g>
<g style="enable-background:new    ;">
	<path style="fill:#999999;" d="M502.592,318.393H540.5c0.803,0,1.52,0.285,2.156,0.853c0.635,0.569,0.952,1.288,0.952,2.156v17.249
		c0,0.803-0.301,1.505-0.902,2.106s-1.304,0.902-2.105,0.902h-62.679c-0.87,0-1.604-0.301-2.207-0.902
		c-0.602-0.602-0.902-1.304-0.902-2.106v-72.607c0-0.802,0.284-1.504,0.853-2.106c0.567-0.602,1.286-0.902,2.156-0.902h21.762
		c0.803,0,1.521,0.301,2.156,0.902c0.635,0.602,0.953,1.304,0.953,2.106L502.592,318.393z"/>
</g>
<g style="enable-background:new    ;">
	<path style="fill:#999999;" d="M720.368,346.291c-0.803,0-1.504-0.301-2.106-0.902c-0.602-0.602-0.902-1.304-0.902-2.106v-72.607
		c0-0.802,0.301-1.504,0.902-2.106c0.603-0.602,1.304-0.902,2.106-0.902h58.467c0.802,0,1.504,0.301,2.105,0.902
		c0.603,0.602,0.903,1.304,0.903,2.106v14.642c0,0.87-0.301,1.604-0.903,2.206c-0.602,0.602-1.304,0.902-2.105,0.902h-33.696v8.023
		h28.782c0.802,0,1.504,0.301,2.105,0.902c0.603,0.602,0.903,1.304,0.903,2.105v14.441c0,0.87-0.301,1.604-0.903,2.206
		c-0.602,0.603-1.304,0.903-2.105,0.903l-28.782,0.1v8.425h36.404c0.868,0,1.587,0.301,2.155,0.902
		c0.567,0.602,0.853,1.338,0.853,2.206v14.642c0,0.803-0.285,1.505-0.853,2.106c-0.568,0.602-1.287,0.902-2.155,0.902H720.368z"/>
</g>
<path id="XMLID_764_" style="fill:#231F20;" d="M651.682,272.662l-1.499-12.686c-0.014-0.114,0.068-0.217,0.182-0.231l5.565-0.657
	c0.114-0.014,0.217,0.068,0.231,0.182l1.078,9.123c0.084,0.705,0.007,1.419-0.223,2.09l-3.104,9.063
	c-0.074,0.214-0.262,0.368-0.488,0.394l-1.701,0.201c-0.114,0.014-0.217-0.068-0.231-0.182l-0.799-6.761
	c-0.014-0.114,0.068-0.217,0.182-0.231l0.623-0.074C651.615,272.88,651.696,272.775,651.682,272.662z"/>
<g id="unused" style="display:none;">
</g>
</svg>
